<svg width="420" height="90" viewBox="0 0 420 90" fill="none" xmlns="http://www.w3.org/2000/svg">
  <!-- Outer Roof & Frame -->
  <path d="M50 10L10 46H24V88H76V46H90L50 10Z" fill="#FF5722"/>
  <!-- Inner House Cutout -->
  <path d="M50 20L26 44V80H74V44L50 20Z" fill="#0A1424"/>
  <!-- 'J' Monogram -->
  <path d="M37 34H44V62C44 66 41 69 37 69C33 69 30 66 30 62H36C36 63.5 36.5 64 37 64C38 64 38.5 63 38.5 61V34Z" fill="#FF5722"/>
  <!-- 'B' Monogram -->
  <path d="M47 34H61C65.5 34 68 36.2 68 39C68 41.2 66.5 43 64 43.8C67 44.8 69 47 69 50.5C69 54.5 65.5 57 61 57H47V34ZM53 39V42.5H60C61.5 42.5 62.5 41.8 62.5 40.8C62.5 39.8 61.5 39 60 39H53ZM53 47.5V52H61C62.8 52 63.8 51 63.8 49.5C63.8 48 62.8 47.5 61 47.5H53Z" fill="#FF8A65"/>
  <!-- Base Foundation Bar -->
  <rect x="16" y="86" width="68" height="5" rx="2.5" fill="#FF5722"/>

  <!-- Single Clean Line Main Title -->
  <text x="105" y="44" fill="#FF5722" font-family="Arial, sans-serif" font-weight="900" font-size="22" letter-spacing="2">JB</text>
  <text x="142" y="44" fill="#FFFFFF" font-family="Arial, sans-serif" font-weight="800" font-size="16" letter-spacing="3.5">VALLEY HOMES INFRA</text>
  
  <!-- Single Clean Line Subtitle -->
  <text x="105" y="68" fill="#FF8A65" font-family="Arial, sans-serif" font-weight="700" font-size="10" letter-spacing="3.2">TOWNSHIP &amp; INFRASTRUCTURE DEVELOPER</text>
</svg>
